<?xml version="1.0" standalone="no"?><!DOCTYPE svg PUBLIC "-//W3C//DTD SVG 1.1//EN" "http://www.w3.org/Graphics/SVG/1.1/DTD/svg11.dtd"><svg t="1757743299701" class="icon" viewBox="0 0 1024 1024" version="1.1" xmlns="http://www.w3.org/2000/svg" p-id="5553" xmlns:xlink="http://www.w3.org/1999/xlink" width="200" height="200"><path d="M631.845463 784.995902c-30.045659 0-59.416976-8.604098-84.942048-24.950634L97.205073 471.764293c-49.239415-31.669073-63.850146-97.354927-32.967805-146.869073 0.474537-0.811707 1.011512-1.635902 1.536-2.44761L207.722146 113.414244c40.597854-59.704195 119.970341-76.113171 180.810927-37.013854l564.611122 361.746732c33.617171 21.429073 53.048195 58.068293 51.936781 98.104195-1.261268 40.035902-22.777756 75.476293-57.568781 94.957268L708.795317 764.81561c-23.402146 13.137171-50.051122 20.180293-76.949854 20.180292zM141.099707 371.961756c-0.124878 0.124878-0.22478 0.312195-0.349658 0.499512-5.032585 7.917268-2.734829 18.481951 5.157463 23.502049l449.573464 288.218537c20.76722 13.324488 47.72839 14.198634 69.219902 2.010536L903.492683 552.585366c7.168-3.958634 11.276488-10.752 11.526244-19.043903 0.22478-7.917268-3.521561-15.085268-10.277464-19.356097-0.037463-0.062439-0.062439-0.062439-0.099902-0.062439L339.918049 152.251317c-19.518439-12.57522-44.743805-7.230439-57.656195 11.813463L141.099707 371.961756zM63.925073 968.81639c-24.888195 0-45.056-20.167805-45.056-45.056V603.747902c0-24.888195 20.167805-45.056 45.056-45.056s45.056 20.167805 45.056 45.056v320.012488c0.012488 24.888195-20.167805 45.056-45.056 45.056z" fill="#020202" p-id="5554"></path><path d="M230.999415 857.525073H63.925073c-24.888195 0-45.056-20.167805-45.056-45.056s20.167805-45.056 45.056-45.056h142.660683l122.580293-188.228683c13.549268-20.867122 41.609366-26.648976 62.314146-13.19961 20.867122 13.574244 26.73639 41.484488 13.162146 62.339122L268.750049 837.032585a45.054751 45.054751 0 0 1-37.750634 20.492488zM209.108293 535.052488c-8.766439 0-17.63278-2.572488-25.425171-7.917268-20.517463-14.011317-25.762341-42.046439-11.726049-62.601366l226.054244-330.202537c14.073756-20.554927 41.984-25.762341 62.626342-11.688585 20.517463 14.011317 25.762341 42.046439 11.726048 62.601366L246.309463 515.446634c-8.741463 12.750049-22.840195 19.605854-37.20117 19.605854z" fill="#020202" p-id="5555"></path></svg>